#!OML:ASF E:/inclinewalkrobotboard/Project1/Captureday1/Session1/subject1.ASF
:FULLY-SPECIFIED
:DEGREES
38
root 0 0 0 -1.1656426343727726 -2.850543344612489 -0.8764064830784413
lowerback 10.948996456459597 0.5638392907879476 0.4771670775911548
upperback -1.1155141046797916 0.8814984839596763 0.9125384925214046
thorax -7.291184319197834 0.40553183426203093 0.4463387928307968
lowerneck -13.408412837370443 -1.4094631547382659 0.215061688654475
upperneck 19.050967836176472 -1.4037493101886263 -2.344779597061281
head 8.212458725375747 -0.8097985506729992 -1.003251316977447
rclavicle -4.623088837165766E-16 -2.456199170208704E-16
rhumerus -11.498265281549223 -6.578268001848793 -67.1118014535001
rradius 43.20306801082382
rwrist 12.139108352118388
rhand -23.693145863029795 -5.9683475681433755
rfingers 7.1250200000001325
rthumb 3.0101624964358056 -36.108133172031316
lclavicle -9.868707056037145E-16 -7.92210006431817E-16
lhumerus -12.651582493490519 -4.04258034618609 68.87868369870071
lradius 43.46835931270634
lwrist -4.948248672365104
lhand -33.230374123522566 -10.299857196509702
lfingers 7.125020000000131
lthumb -6.526993852022832 18.77881245954974
rfemur 10.0558510518877 6.214281918035594 35.32540627989516
rtibia 45.788810570825945
rfoot -8.908826651600428 -0.6138818325282749
rtoes 9.699151375696943
lfemur -14.614881171269536 -5.21751984163513 -19.33802957165343
ltibia 9.95635183332119
lfoot -13.165366369334762 6.2455555951455235
ltoes 0.7528875748490513
39
root 0 0 0 -1.173733018232407 -2.8476776267582973 -0.8852762533355663
lowerback 10.94564412573315 0.5626436109154299 0.47955751128353197
upperback -1.1041258871302888 0.8809149736427402 0.9174911471184669
thorax -7.276838931153054 0.4050174177853429 0.4508111261925863
lowerneck -13.432115600330336 -1.4197900829899925 0.20072950565221742
upperneck 19.05123329195047 -1.4202247246401996 -2.325057193002733
head 8.216675819181763 -0.816600466019199 -0.9957696476588335
rclavicle -4.647396686419947E-16 -2.3182644897883337E-16
rhumerus -11.759812097045964 -6.753820207740149 -67.27237935935298
rradius 42.95420486456816
rwrist 12.015359869344143
rhand -23.60501250297375 -5.539498012153414
rfingers 7.125020000000133
rthumb 3.099441649724331 -35.68714095238724
lclavicle -9.900756986037356E-16 -7.923393520081015E-16
lhumerus -12.803674564369512 -4.006845962894954 68.98857030790242
lradius 43.344771661980765
lwrist -4.860599950768063
lhand -33.177812108483245 -10.01252214433806
lfingers 7.125020000000132
lthumb -6.476517581379357 19.06373176023906
rfemur 7.668281675031761 5.505343639619458 34.09671122903705
rtibia 49.28640286254703
rfoot -6.988300524971479 -0.6528230186424242
rtoes 10.177050498996536
lfemur -9.049650712814449 -5.4788127168946845 -21.805912753020007
ltibia 7.794064942244642
lfoot -14.541289753384525 5.618641421897797
ltoes 0.2738088802676675
40
root 0 0 0 -1.1793954148866659 -2.8456062484706908 -0.8914596651386617
lowerback 10.9432952116281 0.5617850407873476 0.48111453168964313
upperback -1.0961989112142523 0.8805745134243932 0.9209513185542186
thorax -7.266868490958479 0.4046539037142205 0.4539875022825032
lowerneck -13.448451643917027 -1.4269763622275509 0.19064593449407674
upperneck 19.05138015683884 -1.431732041394405 -2.311454871082609
head 8.219610882319738 -0.8213407953700175 -0.9905500964057384
rclavicle -4.652950878570655E-16 -2.1989694411598267E-16
rhumerus -11.958504059501443 -6.886807448339347 -67.39418104926143
rradius 42.766073499198285
rwrist 11.921638165065103
rhand -23.538367984934347 -5.213494864491846
rfingers 7.125020000000134
rthumb 3.1669733464005607 -35.367802451883705
lclavicle -9.931456805459761E-16 -7.925905393704464E-16
lhumerus -12.899110422777667 -3.984534065925754 69.05747653120285
lradius 43.26679030628429
lwrist -4.80518760403796
lhand -33.14451192018821 -9.829908661589899
lfingers 7.125020000000132
lthumb -6.4445109203903765 19.24241560372071
rfemur 4.40252832891106 4.599663485065342 32.44214715845682
rtibia 53.593624055801456
rfoot -4.574004302731611 -0.7768531268055483
rtoes 10.68331136454366
lfemur -4.039457420471603 -5.61188892489468 -23.92385631806359
ltibia 6.67086425640057
lfoot -15.377044378567625 4.723490118272238
ltoes -0.2089394456067719
41
root 0 0 0 -1.182117344760187 -2.844390958900811 -0.8945607437825989
lowerback 10.942085699557744 0.5612669574676732 0.4816083352391395
upperback -1.0920932305253022 0.8804101887075663 0.9227090068334136
thorax -7.261793423392202 0.4044455887106153 0.4557130371720347
lowerneck -13.45642813511544 -1.430563980995027 0.1855406407226432
upperneck 19.051270151333167 -1.4377132302360867 -2.304863912503491
head 8.221039885787626 -0.8237414982736128 -0.9879431142093521
rclavicle -4.654813571162818E-16 -2.1145558497510054E-16
rhumerus -12.087644952512894 -6.9731409943453775 -67.47301122874414
rradius 42.6446952164155
rwrist 11.861129815070912
rhand -23.495299466052217 -5.001816858088209
rfingers 7.125020000000135
rthumb 3.2109209280349784 -35.16159055042954
lclavicle -9.951236454835008E-16 -7.928508948443005E-16
lhumerus -12.927340499226396 -3.9780583436345007 69.07854904885289
lradius 43.242808781065754
lwrist -4.787431336577056
lhand -33.13414587760951 -9.771060030208604
lfingers 7.1250200000001325
lthumb -6.4345168944417015 19.295035743071146
rfemur 0.10108452809676649 3.490922653762219 30.312381647318208
rtibia 58.608025447592475
rfoot -1.74344693991066 -1.039898967360605
rtoes 11.125127700020318
lfemur 0.330177324746046 -5.627452577285758 -25.69119036097527
ltibia 6.464317080529035
lfoot -15.766361281683306 3.6433708912949525
ltoes -0.6756271999182255
